<svg width="18" height="14" viewBox="0 0 18 14" fill="none" xmlns="http://www.w3.org/2000/svg">
<path d="M16.5 0H1.5C0.671875 0 0 0.670746 0 1.49748V12.479C0 13.3057 0.671875 13.9765 1.5 13.9765H16.5C17.3281 13.9765 18 13.3057 18 12.479V1.49748C18 0.670746 17.3281 0 16.5 0ZM16.5 12.479H1.5V1.49748H16.5V12.479ZM6.5 6.98824C7.60313 6.98824 8.5 6.09287 8.5 4.9916C8.5 3.89033 7.60313 2.99496 6.5 2.99496C5.39687 2.99496 4.5 3.89033 4.5 4.9916C4.5 6.09287 5.39687 6.98824 6.5 6.98824ZM3.7 10.9815H9.3C9.6875 10.9815 10 10.7132 10 10.3825V9.78353C10 8.79145 9.05937 7.98655 7.9 7.98655C7.5625 7.98655 7.31563 8.23613 6.5 8.23613C5.65938 8.23613 5.45625 7.98655 5.1 7.98655C3.94062 7.98655 3 8.79145 3 9.78353V10.3825C3 10.7132 3.3125 10.9815 3.7 10.9815ZM11.25 8.98487H14.75C14.8875 8.98487 15 8.87256 15 8.73529V8.23613C15 8.09887 14.8875 7.98655 14.75 7.98655H11.25C11.1125 7.98655 11 8.09887 11 8.23613V8.73529C11 8.87256 11.1125 8.98487 11.25 8.98487ZM11.25 6.98824H14.75C14.8875 6.98824 15 6.87592 15 6.73866V6.2395C15 6.10223 14.8875 5.98992 14.75 5.98992H11.25C11.1125 5.98992 11 6.10223 11 6.2395V6.73866C11 6.87592 11.1125 6.98824 11.25 6.98824ZM11.25 4.9916H14.75C14.8875 4.9916 15 4.87929 15 4.74202V4.24286C15 4.10559 14.8875 3.99328 14.75 3.99328H11.25C11.1125 3.99328 11 4.10559 11 4.24286V4.74202C11 4.87929 11.1125 4.9916 11.25 4.9916Z" fill="#181818"/>
</svg>
