<svg width="18" height="17" viewBox="0 0 18 17" fill="none" xmlns="http://www.w3.org/2000/svg">
<path d="M14.1429 7.89286V9.10714C14.1429 9.35759 13.9259 9.5625 13.6607 9.5625H10.125V12.9018C10.125 13.1522 9.90804 13.3571 9.64286 13.3571H8.35714C8.09196 13.3571 7.875 13.1522 7.875 12.9018V9.5625H4.33929C4.07411 9.5625 3.85714 9.35759 3.85714 9.10714V7.89286C3.85714 7.64241 4.07411 7.4375 4.33929 7.4375H7.875V4.09821C7.875 3.84777 8.09196 3.64286 8.35714 3.64286H9.64286C9.90804 3.64286 10.125 3.84777 10.125 4.09821V7.4375H13.6607C13.9259 7.4375 14.1429 7.64241 14.1429 7.89286ZM18 1.82143V15.1786C18 16.1842 17.1362 17 16.0714 17H1.92857C0.863839 17 0 16.1842 0 15.1786V1.82143C0 0.815848 0.863839 0 1.92857 0H16.0714C17.1362 0 18 0.815848 18 1.82143ZM16.0714 14.9509V2.04911C16.0714 1.92388 15.9629 1.82143 15.8304 1.82143H2.16964C2.03705 1.82143 1.92857 1.92388 1.92857 2.04911V14.9509C1.92857 15.0761 2.03705 15.1786 2.16964 15.1786H15.8304C15.9629 15.1786 16.0714 15.0761 16.0714 14.9509Z" fill="#181818"/>
</svg>
