<svg width="30" height="30" viewBox="0 0 30 30" fill="none" xmlns="http://www.w3.org/2000/svg">
<mask id="path-1-inside-1" fill="white">
<path d="M29.6907 29.3588H27.3167V7.20714C27.3167 3.23313 24.1976 0 20.3638 0C16.53 0 13.4109 3.23313 13.4109 7.20714V14.0161L13.1589 13.7257C13.157 13.7234 13.1542 13.7228 13.1524 13.7205C13.1366 13.7032 13.1165 13.6914 13.0973 13.6779C13.0828 13.668 13.0701 13.6551 13.0543 13.6481C13.0389 13.641 13.0215 13.6397 13.0048 13.6353C12.9823 13.6292 12.9603 13.6218 12.9368 13.6212C12.934 13.6212 12.9315 13.6195 12.9288 13.6195H4.20742C4.20464 13.6195 4.20247 13.6212 4.19969 13.6212C4.17557 13.6218 4.15299 13.6295 4.12979 13.6359C4.11402 13.6404 4.09701 13.6413 4.08216 13.6484C4.06639 13.6555 4.0534 13.6686 4.03856 13.6789C4.01938 13.6923 3.9999 13.7039 3.98412 13.7209C3.98227 13.7231 3.97948 13.7237 3.97763 13.726L0.486186 17.7465C0.371753 17.8779 0.382268 18.0809 0.509072 18.1992C0.568144 18.2543 0.642062 18.2815 0.71567 18.2815C0.800412 18.2815 0.884536 18.246 0.945773 18.1754L1.31938 17.7452V29.3588H0.309278C0.138557 29.3588 0 29.5021 0 29.6794C0 29.8567 0.138557 30 0.309278 30H29.6907C29.8618 30 30 29.8567 30 29.6794C30 29.5021 29.8618 29.3588 29.6907 29.3588ZM20.3638 0.641176C23.7523 0.641176 26.5197 3.41555 26.6827 6.88655H14.0453C14.2079 3.41555 16.9757 0.641176 20.3638 0.641176ZM21.7961 21.5653V19.1026H24.7033V21.5653H21.7961ZM24.7033 22.2065V24.6693H21.7961V22.2065H24.7033ZM21.7961 18.4614V15.9986H24.7033V18.4614H21.7961ZM21.7961 15.3575V12.8947H24.7033V15.3575H21.7961ZM21.7961 12.2538V9.79108H24.7033V12.2538H21.7961ZM21.7961 9.14991V7.52773H24.7033V9.14991H21.7961ZM8.14206 25.5682L5.12072 28.8744V22.262L8.14206 25.5682ZM5.53021 21.7782H11.6057L8.56794 25.1021L5.53021 21.7782ZM5.53021 29.3582L8.56794 26.0343L11.6057 29.3582H5.53021ZM12.0155 28.8741L8.99412 25.5679L12.0155 22.2616V28.8741ZM15.1979 29.3588H12.634V21.4576C12.634 21.456 12.6334 21.455 12.6334 21.4534C12.6331 21.4255 12.6247 21.3986 12.6173 21.3717C12.6136 21.3582 12.6139 21.3435 12.6087 21.3307C12.6043 21.3204 12.5957 21.3121 12.5898 21.3021C12.5753 21.2755 12.5604 21.2489 12.5394 21.2281C12.5385 21.2271 12.5381 21.2258 12.5372 21.2249C12.5273 21.2152 12.5146 21.2114 12.5038 21.2034C12.4831 21.1874 12.463 21.1707 12.4386 21.1607C12.416 21.1514 12.3925 21.1498 12.369 21.1463C12.3538 21.1438 12.3405 21.137 12.3247 21.137H4.81144C4.79567 21.137 4.78206 21.1438 4.7666 21.1463C4.74309 21.1498 4.7199 21.1518 4.69763 21.1607C4.67289 21.1707 4.65278 21.1874 4.63206 21.2034C4.62124 21.2114 4.60856 21.2152 4.59897 21.2249C4.59804 21.2258 4.59773 21.2271 4.5968 21.2281C4.57577 21.2489 4.56093 21.2755 4.54639 21.3021C4.54082 21.3121 4.53216 21.3204 4.52753 21.3307C4.52227 21.3435 4.52227 21.3582 4.51887 21.3717C4.51144 21.3986 4.5034 21.4255 4.50278 21.4534C4.50278 21.455 4.50216 21.456 4.50216 21.4576V29.3588H1.93794V17.0329L4.34505 14.261H12.7911L15.1979 17.0329V29.3588ZM26.6981 29.3588H15.8165V17.7452L16.1904 18.1757C16.2513 18.2463 16.3358 18.2819 16.4202 18.2819C16.4938 18.2819 16.568 18.2546 16.6271 18.1995C16.7539 18.0812 16.7641 17.8782 16.65 17.7468L14.0295 14.7288V7.52773H21.1775V26.3472C21.1775 26.5245 21.3158 26.6678 21.4868 26.6678C21.6578 26.6678 21.7961 26.5245 21.7961 26.3472V25.3101H24.7033V26.3472C24.7033 26.5245 24.8415 26.6678 25.0126 26.6678C25.1836 26.6678 25.3219 26.5245 25.3219 26.3472V7.52773H26.6981V29.3588Z"/>
</mask>
<path d="M29.6907 29.3588H27.3167V7.20714C27.3167 3.23313 24.1976 0 20.3638 0C16.53 0 13.4109 3.23313 13.4109 7.20714V14.0161L13.1589 13.7257C13.157 13.7234 13.1542 13.7228 13.1524 13.7205C13.1366 13.7032 13.1165 13.6914 13.0973 13.6779C13.0828 13.668 13.0701 13.6551 13.0543 13.6481C13.0389 13.641 13.0215 13.6397 13.0048 13.6353C12.9823 13.6292 12.9603 13.6218 12.9368 13.6212C12.934 13.6212 12.9315 13.6195 12.9288 13.6195H4.20742C4.20464 13.6195 4.20247 13.6212 4.19969 13.6212C4.17557 13.6218 4.15299 13.6295 4.12979 13.6359C4.11402 13.6404 4.09701 13.6413 4.08216 13.6484C4.06639 13.6555 4.0534 13.6686 4.03856 13.6789C4.01938 13.6923 3.9999 13.7039 3.98412 13.7209C3.98227 13.7231 3.97948 13.7237 3.97763 13.726L0.486186 17.7465C0.371753 17.8779 0.382268 18.0809 0.509072 18.1992C0.568144 18.2543 0.642062 18.2815 0.71567 18.2815C0.800412 18.2815 0.884536 18.246 0.945773 18.1754L1.31938 17.7452V29.3588H0.309278C0.138557 29.3588 0 29.5021 0 29.6794C0 29.8567 0.138557 30 0.309278 30H29.6907C29.8618 30 30 29.8567 30 29.6794C30 29.5021 29.8618 29.3588 29.6907 29.3588ZM20.3638 0.641176C23.7523 0.641176 26.5197 3.41555 26.6827 6.88655H14.0453C14.2079 3.41555 16.9757 0.641176 20.3638 0.641176ZM21.7961 21.5653V19.1026H24.7033V21.5653H21.7961ZM24.7033 22.2065V24.6693H21.7961V22.2065H24.7033ZM21.7961 18.4614V15.9986H24.7033V18.4614H21.7961ZM21.7961 15.3575V12.8947H24.7033V15.3575H21.7961ZM21.7961 12.2538V9.79108H24.7033V12.2538H21.7961ZM21.7961 9.14991V7.52773H24.7033V9.14991H21.7961ZM8.14206 25.5682L5.12072 28.8744V22.262L8.14206 25.5682ZM5.53021 21.7782H11.6057L8.56794 25.1021L5.53021 21.7782ZM5.53021 29.3582L8.56794 26.0343L11.6057 29.3582H5.53021ZM12.0155 28.8741L8.99412 25.5679L12.0155 22.2616V28.8741ZM15.1979 29.3588H12.634V21.4576C12.634 21.456 12.6334 21.455 12.6334 21.4534C12.6331 21.4255 12.6247 21.3986 12.6173 21.3717C12.6136 21.3582 12.6139 21.3435 12.6087 21.3307C12.6043 21.3204 12.5957 21.3121 12.5898 21.3021C12.5753 21.2755 12.5604 21.2489 12.5394 21.2281C12.5385 21.2271 12.5381 21.2258 12.5372 21.2249C12.5273 21.2152 12.5146 21.2114 12.5038 21.2034C12.4831 21.1874 12.463 21.1707 12.4386 21.1607C12.416 21.1514 12.3925 21.1498 12.369 21.1463C12.3538 21.1438 12.3405 21.137 12.3247 21.137H4.81144C4.79567 21.137 4.78206 21.1438 4.7666 21.1463C4.74309 21.1498 4.7199 21.1518 4.69763 21.1607C4.67289 21.1707 4.65278 21.1874 4.63206 21.2034C4.62124 21.2114 4.60856 21.2152 4.59897 21.2249C4.59804 21.2258 4.59773 21.2271 4.5968 21.2281C4.57577 21.2489 4.56093 21.2755 4.54639 21.3021C4.54082 21.3121 4.53216 21.3204 4.52753 21.3307C4.52227 21.3435 4.52227 21.3582 4.51887 21.3717C4.51144 21.3986 4.5034 21.4255 4.50278 21.4534C4.50278 21.455 4.50216 21.456 4.50216 21.4576V29.3588H1.93794V17.0329L4.34505 14.261H12.7911L15.1979 17.0329V29.3588ZM26.6981 29.3588H15.8165V17.7452L16.1904 18.1757C16.2513 18.2463 16.3358 18.2819 16.4202 18.2819C16.4938 18.2819 16.568 18.2546 16.6271 18.1995C16.7539 18.0812 16.7641 17.8782 16.65 17.7468L14.0295 14.7288V7.52773H21.1775V26.3472C21.1775 26.5245 21.3158 26.6678 21.4868 26.6678C21.6578 26.6678 21.7961 26.5245 21.7961 26.3472V25.3101H24.7033V26.3472C24.7033 26.5245 24.8415 26.6678 25.0126 26.6678C25.1836 26.6678 25.3219 26.5245 25.3219 26.3472V7.52773H26.6981V29.3588Z" stroke="#181818" stroke-width="4" mask="url(#path-1-inside-1)"/>
</svg>
