<svg width="197" height="45" viewBox="0 0 197 45" fill="none" xmlns="http://www.w3.org/2000/svg">
<path d="M135 18.5351C140.929 20.3825 144.251 21.4304 151.423 18.5351C162.149 13.9152 168.064 13.729 178.404 18.5351C184.771 21.3342 188.454 22.2755 196 18.5351" stroke="#4C4117"/>
<path d="M135 24.5351C140.929 26.3825 144.251 27.4304 151.423 24.5351C162.149 19.9152 168.064 19.729 178.404 24.5351C184.771 27.3342 188.454 28.2755 196 24.5351" stroke="#4C4117"/>
<path d="M1 19.5351C6.92947 21.3825 10.2506 22.4304 17.4231 19.5351C28.1493 14.9152 34.0639 14.729 44.4038 19.5351C50.7711 22.3342 54.4542 23.2755 62 19.5351" stroke="#4C4117"/>
<path d="M1 25.5351C6.92947 27.3825 10.2506 28.4304 17.4231 25.5351C28.1493 20.9152 34.0639 20.729 44.4038 25.5351C50.7711 28.3342 54.4542 29.2755 62 25.5351" stroke="#4C4117"/>
<path d="M74.2215 19.2282C72.73 15.0401 73.9793 10.7057 79.1556 5.14276C80.5257 3.98967 81.441 3.46627 82.5238 3.48053C83.6763 3.4957 85.2558 4.12274 87.8987 6.02198C88.4761 6.51727 89.1943 7.35528 89.9834 8.40098C90.7746 9.44944 91.5961 10.651 92.3658 11.8087C92.7221 12.3446 93.0745 12.8823 93.406 13.3881C93.7766 13.9534 94.1209 14.4788 94.415 14.9168C94.6983 15.3387 94.955 15.71 95.1685 15.993C95.2747 16.1338 95.3807 16.2667 95.4814 16.3783C95.5581 16.4632 95.7133 16.6307 95.9172 16.7432C95.9171 16.7431 95.9204 16.745 95.9278 16.7493C95.9349 16.7536 95.9444 16.7594 95.9566 16.7669C95.9811 16.7822 96.0128 16.8025 96.0519 16.8283C96.1302 16.8799 96.2314 16.949 96.3533 17.0349C96.5969 17.2066 96.9143 17.4392 97.2838 17.7228C98.0232 18.2902 98.9605 19.0536 99.922 19.9294C101.868 21.7018 103.759 23.799 104.461 25.6033C104.57 26.0997 104.518 26.7453 104.292 27.5127C104.061 28.2961 103.672 29.1263 103.217 29.915C102.763 30.7007 102.256 31.4193 101.809 31.9766C101.336 32.5661 100.997 32.8878 100.885 32.9634C100.764 33.0453 100.203 33.3111 99.2412 33.6266C98.3216 33.9284 97.1275 34.2459 95.8107 34.4629C93.1636 34.899 90.1993 34.8991 87.9378 33.749C84.2096 30.9663 81.1692 28.4383 78.8598 26.0432C76.5342 23.6312 74.9945 21.399 74.2215 19.2282Z" fill="#EBFF00"/>
<path d="M74.2215 19.2282C72.73 15.0401 73.9793 10.7057 79.1556 5.14276C80.5257 3.98967 81.441 3.46627 82.5238 3.48053C83.6763 3.4957 85.2558 4.12274 87.8987 6.02198C88.4761 6.51727 89.1943 7.35528 89.9834 8.40098C90.7746 9.44944 91.5961 10.651 92.3658 11.8087C92.7221 12.3446 93.0745 12.8823 93.406 13.3881C93.7766 13.9534 94.1209 14.4788 94.415 14.9168C94.6983 15.3387 94.955 15.71 95.1685 15.993C95.2747 16.1338 95.3807 16.2667 95.4814 16.3783C95.5581 16.4632 95.7133 16.6307 95.9172 16.7432C95.9171 16.7431 95.9204 16.745 95.9278 16.7493C95.9349 16.7536 95.9444 16.7594 95.9566 16.7669C95.9811 16.7822 96.0128 16.8025 96.0519 16.8283C96.1302 16.8799 96.2314 16.949 96.3533 17.0349C96.5969 17.2066 96.9143 17.4392 97.2838 17.7228C98.0232 18.2902 98.9605 19.0536 99.922 19.9294C101.868 21.7018 103.759 23.799 104.461 25.6033C104.57 26.0997 104.518 26.7453 104.292 27.5127C104.061 28.2961 103.672 29.1263 103.217 29.915C102.763 30.7007 102.256 31.4193 101.809 31.9766C101.336 32.5661 100.997 32.8878 100.885 32.9634C100.764 33.0453 100.203 33.3111 99.2412 33.6266C98.3216 33.9284 97.1275 34.2459 95.8107 34.4629C93.1636 34.899 90.1993 34.8991 87.9378 33.749C84.2096 30.9663 81.1692 28.4383 78.8598 26.0432C76.5342 23.6312 74.9945 21.399 74.2215 19.2282Z" fill="url(#paint0_linear)"/>
<path d="M74.2215 19.2282C72.73 15.0401 73.9793 10.7057 79.1556 5.14276C80.5257 3.98967 81.441 3.46627 82.5238 3.48053C83.6763 3.4957 85.2558 4.12274 87.8987 6.02198C88.4761 6.51727 89.1943 7.35528 89.9834 8.40098C90.7746 9.44944 91.5961 10.651 92.3658 11.8087C92.7221 12.3446 93.0745 12.8823 93.406 13.3881C93.7766 13.9534 94.1209 14.4788 94.415 14.9168C94.6983 15.3387 94.955 15.71 95.1685 15.993C95.2747 16.1338 95.3807 16.2667 95.4814 16.3783C95.5581 16.4632 95.7133 16.6307 95.9172 16.7432C95.9171 16.7431 95.9204 16.745 95.9278 16.7493C95.9349 16.7536 95.9444 16.7594 95.9566 16.7669C95.9811 16.7822 96.0128 16.8025 96.0519 16.8283C96.1302 16.8799 96.2314 16.949 96.3533 17.0349C96.5969 17.2066 96.9143 17.4392 97.2838 17.7228C98.0232 18.2902 98.9605 19.0536 99.922 19.9294C101.868 21.7018 103.759 23.799 104.461 25.6033C104.57 26.0997 104.518 26.7453 104.292 27.5127C104.061 28.2961 103.672 29.1263 103.217 29.915C102.763 30.7007 102.256 31.4193 101.809 31.9766C101.336 32.5661 100.997 32.8878 100.885 32.9634C100.764 33.0453 100.203 33.3111 99.2412 33.6266C98.3216 33.9284 97.1275 34.2459 95.8107 34.4629C93.1636 34.899 90.1993 34.8991 87.9378 33.749C84.2096 30.9663 81.1692 28.4383 78.8598 26.0432C76.5342 23.6312 74.9945 21.399 74.2215 19.2282Z" stroke="#4C4117" stroke-width="2"/>
<path d="M79.0445 16.1274L82.1067 18.373" stroke="#4C4117"/>
<path d="M100.398 34.215C95.9917 33.6236 92.7101 30.5286 90.1342 23.3798C89.7363 21.6339 89.69 20.5805 90.1984 19.6243C90.7395 18.6067 92.0201 17.4895 94.9186 16.0093C95.6232 15.7227 96.6971 15.4678 97.988 15.245C99.2824 15.0216 100.727 14.8413 102.108 14.6871C102.748 14.6157 103.387 14.5485 103.989 14.4853C104.661 14.4147 105.286 14.3491 105.81 14.2882C106.314 14.2295 106.762 14.1712 107.112 14.111C107.285 14.081 107.452 14.0477 107.597 14.0092C107.708 13.9799 107.928 13.9185 108.121 13.7888C108.121 13.7888 108.124 13.7867 108.131 13.7822C108.139 13.7778 108.148 13.772 108.16 13.7646C108.185 13.7498 108.218 13.731 108.258 13.708C108.34 13.662 108.448 13.6037 108.58 13.5346C108.844 13.3967 109.196 13.221 109.618 13.0223C110.461 12.6247 111.569 12.1408 112.787 11.687C115.254 10.7685 117.984 10.0477 119.91 10.2493C120.401 10.3791 120.951 10.7215 121.53 11.274C122.12 11.838 122.681 12.5632 123.173 13.3296C123.664 14.0929 124.071 14.8719 124.362 15.5248C124.669 16.2153 124.8 16.6634 124.816 16.7976C124.834 16.9428 124.813 17.5638 124.653 18.563C124.5 19.5188 124.236 20.7257 123.826 21.9958C123.002 24.5489 121.645 27.1843 119.587 28.6683C115.406 30.7089 111.767 32.2547 108.58 33.2113C105.371 34.1746 102.682 34.5216 100.398 34.215Z" fill="#EBFF00"/>
<path d="M100.398 34.215C95.9917 33.6236 92.7101 30.5286 90.1342 23.3798C89.7363 21.6339 89.69 20.5805 90.1984 19.6243C90.7395 18.6067 92.0201 17.4895 94.9186 16.0093C95.6232 15.7227 96.6971 15.4678 97.988 15.245C99.2824 15.0216 100.727 14.8413 102.108 14.6871C102.748 14.6157 103.387 14.5485 103.989 14.4853C104.661 14.4147 105.286 14.3491 105.81 14.2882C106.314 14.2295 106.762 14.1712 107.112 14.111C107.285 14.081 107.452 14.0477 107.597 14.0092C107.708 13.9799 107.928 13.9185 108.121 13.7888C108.121 13.7888 108.124 13.7867 108.131 13.7822C108.139 13.7778 108.148 13.772 108.16 13.7646C108.185 13.7498 108.218 13.731 108.258 13.708C108.34 13.662 108.448 13.6037 108.58 13.5346C108.844 13.3967 109.196 13.221 109.618 13.0223C110.461 12.6247 111.569 12.1408 112.787 11.687C115.254 10.7685 117.984 10.0477 119.91 10.2493C120.401 10.3791 120.951 10.7215 121.53 11.274C122.12 11.838 122.681 12.5632 123.173 13.3296C123.664 14.0929 124.071 14.8719 124.362 15.5248C124.669 16.2153 124.8 16.6634 124.816 16.7976C124.834 16.9428 124.813 17.5638 124.653 18.563C124.5 19.5188 124.236 20.7257 123.826 21.9958C123.002 24.5489 121.645 27.1843 119.587 28.6683C115.406 30.7089 111.767 32.2547 108.58 33.2113C105.371 34.1746 102.682 34.5216 100.398 34.215Z" fill="url(#paint1_linear)"/>
<path d="M100.398 34.215C95.9917 33.6236 92.7101 30.5286 90.1342 23.3798C89.7363 21.6339 89.69 20.5805 90.1984 19.6243C90.7395 18.6067 92.0201 17.4895 94.9186 16.0093C95.6232 15.7227 96.6971 15.4678 97.988 15.245C99.2824 15.0216 100.727 14.8413 102.108 14.6871C102.748 14.6157 103.387 14.5485 103.989 14.4853C104.661 14.4147 105.286 14.3491 105.81 14.2882C106.314 14.2295 106.762 14.1712 107.112 14.111C107.285 14.081 107.452 14.0477 107.597 14.0092C107.708 13.9799 107.928 13.9185 108.121 13.7888C108.121 13.7888 108.124 13.7867 108.131 13.7822C108.139 13.7778 108.148 13.772 108.16 13.7646C108.185 13.7498 108.218 13.731 108.258 13.708C108.34 13.662 108.448 13.6037 108.58 13.5346C108.844 13.3967 109.196 13.221 109.618 13.0223C110.461 12.6247 111.569 12.1408 112.787 11.687C115.254 10.7685 117.984 10.0477 119.91 10.2493C120.401 10.3791 120.951 10.7215 121.53 11.274C122.12 11.838 122.681 12.5632 123.173 13.3296C123.664 14.0929 124.071 14.8719 124.362 15.5248C124.669 16.2153 124.8 16.6634 124.816 16.7976C124.834 16.9428 124.813 17.5638 124.653 18.563C124.5 19.5188 124.236 20.7257 123.826 21.9958C123.002 24.5489 121.645 27.1843 119.587 28.6683C115.406 30.7089 111.767 32.2547 108.58 33.2113C105.371 34.1746 102.682 34.5216 100.398 34.215Z" stroke="#4C4117" stroke-width="2"/>
<path d="M86.0935 40.1611C82.4074 37.6755 80.8404 33.4457 81.7049 25.8963C82.1231 24.1551 82.5492 23.1906 83.4291 22.5594C84.3657 21.8876 86.0091 21.4548 89.2634 21.4148C90.022 21.4708 91.0974 21.719 92.3532 22.0922C93.6122 22.4665 94.9865 22.9459 96.293 23.4209C96.8978 23.6407 97.5007 23.8644 98.0677 24.0747C98.7014 24.3098 99.2903 24.5282 99.787 24.7062C100.265 24.8776 100.692 25.0241 101.032 25.1251C101.201 25.1754 101.365 25.2195 101.513 25.2495C101.625 25.2724 101.849 25.315 102.08 25.2846C102.08 25.2846 102.084 25.2841 102.092 25.2832C102.1 25.2824 102.111 25.2814 102.126 25.2803C102.155 25.278 102.192 25.2755 102.239 25.2731C102.333 25.2682 102.455 25.2637 102.604 25.2605C102.902 25.2541 103.296 25.2529 103.761 25.2619C104.693 25.2798 105.901 25.3378 107.194 25.472C109.812 25.7437 112.579 26.3094 114.215 27.3447C114.597 27.6792 114.938 28.23 115.212 28.982C115.491 29.7496 115.671 30.6481 115.772 31.5535C115.873 32.4552 115.892 33.334 115.863 34.0481C115.832 34.8033 115.751 35.263 115.705 35.3904C115.656 35.5282 115.362 36.0755 114.776 36.9C114.215 37.6887 113.442 38.6529 112.511 39.6091C110.639 41.5312 108.254 43.2906 105.751 43.7071C101.099 43.6802 97.1514 43.4502 93.8713 42.8931C90.568 42.3321 88.004 41.4494 86.0935 40.1611Z" fill="#EBFF00"/>
<path d="M86.0935 40.1611C82.4074 37.6755 80.8404 33.4457 81.7049 25.8963C82.1231 24.1551 82.5492 23.1906 83.4291 22.5594C84.3657 21.8876 86.0091 21.4548 89.2634 21.4148C90.022 21.4708 91.0974 21.719 92.3532 22.0922C93.6122 22.4665 94.9865 22.9459 96.293 23.4209C96.8978 23.6407 97.5007 23.8644 98.0677 24.0747C98.7014 24.3098 99.2903 24.5282 99.787 24.7062C100.265 24.8776 100.692 25.0241 101.032 25.1251C101.201 25.1754 101.365 25.2195 101.513 25.2495C101.625 25.2724 101.849 25.315 102.08 25.2846C102.08 25.2846 102.084 25.2841 102.092 25.2832C102.1 25.2824 102.111 25.2814 102.126 25.2803C102.155 25.278 102.192 25.2755 102.239 25.2731C102.333 25.2682 102.455 25.2637 102.604 25.2605C102.902 25.2541 103.296 25.2529 103.761 25.2619C104.693 25.2798 105.901 25.3378 107.194 25.472C109.812 25.7437 112.579 26.3094 114.215 27.3447C114.597 27.6792 114.938 28.23 115.212 28.982C115.491 29.7496 115.671 30.6481 115.772 31.5535C115.873 32.4552 115.892 33.334 115.863 34.0481C115.832 34.8033 115.751 35.263 115.705 35.3904C115.656 35.5282 115.362 36.0755 114.776 36.9C114.215 37.6887 113.442 38.6529 112.511 39.6091C110.639 41.5312 108.254 43.2906 105.751 43.7071C101.099 43.6802 97.1514 43.4502 93.8713 42.8931C90.568 42.3321 88.004 41.4494 86.0935 40.1611Z" fill="url(#paint2_linear)"/>
<path d="M86.0935 40.1611C82.4074 37.6755 80.8404 33.4457 81.7049 25.8963C82.1231 24.1551 82.5492 23.1906 83.4291 22.5594C84.3657 21.8876 86.0091 21.4548 89.2634 21.4148C90.022 21.4708 91.0974 21.719 92.3532 22.0922C93.6122 22.4665 94.9865 22.9459 96.293 23.4209C96.8978 23.6407 97.5007 23.8644 98.0677 24.0747C98.7014 24.3098 99.2903 24.5282 99.787 24.7062C100.265 24.8776 100.692 25.0241 101.032 25.1251C101.201 25.1754 101.365 25.2195 101.513 25.2495C101.625 25.2724 101.849 25.315 102.08 25.2846C102.08 25.2846 102.084 25.2841 102.092 25.2832C102.1 25.2824 102.111 25.2814 102.126 25.2803C102.155 25.278 102.192 25.2755 102.239 25.2731C102.333 25.2682 102.455 25.2637 102.604 25.2605C102.902 25.2541 103.296 25.2529 103.761 25.2619C104.693 25.2798 105.901 25.3378 107.194 25.472C109.812 25.7437 112.579 26.3094 114.215 27.3447C114.597 27.6792 114.938 28.23 115.212 28.982C115.491 29.7496 115.671 30.6481 115.772 31.5535C115.873 32.4552 115.892 33.334 115.863 34.0481C115.832 34.8033 115.751 35.263 115.705 35.3904C115.656 35.5282 115.362 36.0755 114.776 36.9C114.215 37.6887 113.442 38.6529 112.511 39.6091C110.639 41.5312 108.254 43.2906 105.751 43.7071C101.099 43.6802 97.1514 43.4502 93.8713 42.8931C90.568 42.3321 88.004 41.4494 86.0935 40.1611Z" stroke="#4C4117" stroke-width="2"/>
<rect x="81.2901" y="11.2969" width="5.71604" height="2.44973" rx="1.22487" transform="rotate(-38.2579 81.2901 11.2969)" fill="#B68E00"/>
<rect x="115.178" y="22.7289" width="5.71604" height="2.44973" rx="1.22487" transform="rotate(-38.2579 115.178 22.7289)" fill="#B68E00"/>
<rect x="102.804" y="32.576" width="5.71604" height="2.44973" rx="1.22487" transform="rotate(-167.967 102.804 32.576)" fill="#B68E00"/>
<rect x="82.5101" y="19.7484" width="5.71604" height="2.44973" rx="1.22487" transform="rotate(-148.903 82.5101 19.7484)" fill="#B68E00"/>
<path d="M98.5834 40.5C98.1645 39.9688 98.2556 39.1987 98.7868 38.7798L101.352 36.7573C101.883 36.3384 102.653 36.4295 103.072 36.9606C103.491 37.4918 103.4 38.262 102.868 38.6809L100.304 40.7034C99.7725 41.1223 99.0023 41.0312 98.5834 40.5Z" fill="#BFA113"/>
<path d="M86.1563 34.4111C85.4864 34.5052 84.867 34.0385 84.7729 33.3686L84.3185 30.134C84.2244 29.4641 84.6912 28.8448 85.3611 28.7507C86.031 28.6566 86.6503 29.1233 86.7444 29.7932L87.1988 33.0278C87.293 33.6977 86.8262 34.317 86.1563 34.4111Z" fill="#BFA113"/>
<path d="M107.411 21.9583C106.741 22.0524 106.122 21.5856 106.028 20.9157L105.573 17.6812C105.479 17.0113 105.946 16.3919 106.616 16.2978C107.286 16.2037 107.905 16.6705 107.999 17.3404L108.454 20.5749C108.548 21.2448 108.081 21.8642 107.411 21.9583Z" fill="#BFA113"/>
<defs>
<linearGradient id="paint0_linear" x1="96.0668" y1="10.8024" x2="81.6487" y2="30.3542" gradientUnits="userSpaceOnUse">
<stop stop-color="#F2CA3D"/>
<stop offset="1" stop-color="#FFE899"/>
</linearGradient>
<linearGradient id="paint1_linear" x1="102.908" y1="10.936" x2="113.69" y2="32.7055" gradientUnits="userSpaceOnUse">
<stop stop-color="#F2CA3D"/>
<stop offset="1" stop-color="#FFE899"/>
</linearGradient>
<linearGradient id="paint2_linear" x1="98.6745" y1="20.4144" x2="98.6745" y2="44.7076" gradientUnits="userSpaceOnUse">
<stop stop-color="#F2CA3D"/>
<stop offset="1" stop-color="#FFE899"/>
</linearGradient>
</defs>
</svg>
