<svg width="30" height="30" viewBox="0 0 30 30" fill="none" xmlns="http://www.w3.org/2000/svg">
<path d="M29.436 13.7984C29.0714 13.4643 28.5855 13.28 28.0684 13.2793C28.0674 13.2793 28.0664 13.2793 28.065 13.2793C27.5489 13.2793 27.0637 13.4625 26.6988 13.795L20.8648 19.106H19.9255C20.3162 18.7386 20.5588 18.2384 20.5595 17.6869C20.5612 16.5632 19.5622 15.6468 18.3329 15.6443H18.3322C18.3312 15.6443 18.3305 15.6446 18.3298 15.6446C18.3292 15.6446 18.3285 15.6443 18.3275 15.6443H17.6179V11.8473C20.185 11.2571 21.5957 9.37655 21.9111 8.90795C26.4009 7.13131 25.0048 3.12737 24.7876 2.57805C24.7832 2.55856 24.7836 2.53877 24.7751 2.51959C24.7385 2.43855 24.668 2.3804 24.5847 2.35071C24.5037 2.31792 24.4085 2.31328 24.3193 2.34607C24.298 2.35411 24.2824 2.36865 24.2638 2.37978C23.6826 2.62568 19.649 4.50841 21.3198 8.6036C21.0234 9.02951 19.7744 10.6465 17.6179 11.2095V7.38958C18.8584 6.32898 19.4928 5.16012 19.4928 3.91177C19.4928 1.73922 17.5871 0.143826 17.5061 0.0770167C17.4925 0.0658817 17.4759 0.0615515 17.461 0.0525816C17.4424 0.041756 17.4254 0.0300025 17.4055 0.0225792C17.3844 0.0148466 17.3634 0.0117536 17.3414 0.00804191C17.3204 0.00433026 17.3004 0 17.2787 0C17.2574 0 17.2374 0.00433026 17.216 0.00804191C17.1943 0.0117536 17.1733 0.0145373 17.1523 0.0222699C17.1317 0.0296932 17.1144 0.041756 17.0957 0.0532002C17.0812 0.0618608 17.0649 0.066191 17.0517 0.0770167C16.9707 0.143826 15.065 1.73922 15.065 3.91177C15.065 5.16012 15.6993 6.32898 16.9399 7.38958V12.7535C14.7828 12.19 13.5338 10.572 13.2383 10.1473C14.9119 6.04534 10.8606 4.16292 10.291 3.92259C10.273 3.91208 10.2584 3.89816 10.2381 3.89042C10.1497 3.85733 10.0551 3.86197 9.97379 3.89475C9.89044 3.92445 9.81962 3.9826 9.78302 4.06394C9.77455 4.08312 9.77489 4.10261 9.77082 4.12209C9.55396 4.67018 8.15688 8.67474 12.6466 10.4517C12.9611 10.919 14.3717 12.8012 16.9399 13.3916V15.6446H10.3309C10.2869 15.6446 10.2428 15.6526 10.2015 15.6684C10.1598 15.6842 10.1226 15.7068 10.091 15.7355L6.03975 19.4339L4.88257 18.3776C4.75008 18.2567 4.53593 18.2567 4.40344 18.3776L0.0993678 22.3058C-0.0331226 22.4267 -0.0331226 22.6222 0.0993678 22.7431C0.165444 22.8034 0.252189 22.8337 0.338935 22.8337C0.42568 22.8337 0.512426 22.8034 0.578502 22.7431L4.64301 19.0336L11.2235 25.0403L11.2238 25.0406L12.0089 25.7573L7.939 29.472C7.80651 29.593 7.80651 29.7884 7.939 29.9094C8.00508 29.9697 8.09182 30 8.17857 30C8.26531 30 8.35206 29.9697 8.41813 29.9094L12.6998 26.0016C12.7107 25.9942 12.7236 25.9902 12.7337 25.9812C12.8662 25.8603 12.8662 25.6648 12.7337 25.5439L11.9425 24.8216L13.6791 23.2365C13.6835 23.2324 13.6849 23.2275 13.6889 23.2232H21.6851C21.7292 23.2232 21.7732 23.2151 21.8146 23.1993C21.8562 23.1836 21.8935 23.161 21.925 23.1322L29.4326 16.2969C30.1879 15.609 30.1892 14.4881 29.436 13.7984ZM24.256 3.07139C24.5694 4.02095 25.1509 6.80036 21.8928 8.23584C20.7248 5.12022 23.2974 3.53751 24.256 3.07139ZM10.3035 4.61512C11.2635 5.07908 13.838 6.65622 12.6649 9.78019C9.41673 8.3478 9.99277 5.565 10.3035 4.61512ZM15.7427 3.9161C15.741 2.43639 16.8033 1.21928 17.2787 0.748206C17.7541 1.21928 18.8168 2.43639 18.8147 3.9161C18.8134 4.94329 18.2926 5.92131 17.2787 6.8285C16.2652 5.92131 15.7444 4.94329 15.7427 3.9161ZM11.4634 24.3843L6.51888 19.8712L10.4712 16.2632H18.3271C18.3278 16.2632 18.3285 16.2629 18.3292 16.2629C18.3298 16.2629 18.3305 16.2632 18.3312 16.2632C19.1868 16.2651 19.8824 16.9031 19.8814 17.6866C19.8804 18.4695 19.1837 19.1063 18.3285 19.1063H13.5534C13.3664 19.1063 13.2146 19.2446 13.2146 19.4156C13.2146 19.5867 13.3664 19.7249 13.5534 19.7249H21.0047C21.0488 19.7249 21.0928 19.7169 21.1342 19.7011C21.1758 19.6853 21.2131 19.6628 21.2446 19.634L27.1772 14.2329C27.4144 14.0167 27.7299 13.898 28.065 13.898C28.066 13.898 28.0667 13.898 28.0674 13.898C28.4035 13.8983 28.7193 14.0183 28.9562 14.2351C29.4458 14.6833 29.4448 15.412 28.9541 15.8589L21.5448 22.6045H13.5534C13.4297 22.6045 13.326 22.668 13.2667 22.7586C13.244 22.7713 13.2196 22.7808 13.2 22.7991L11.4634 24.3843Z" fill="#181818"/>
</svg>
